<svg width="32" height="20" viewBox="0 0 32 20" fill="none" xmlns="http://www.w3.org/2000/svg">
<path fill-rule="evenodd" clip-rule="evenodd" d="M22.8787 0.0622083C22.6447 -0.0696646 22.3496 0.014936 22.2182 0.251588L11.7228 18.697C11.6256 18.8502 11.6194 19.0452 11.7066 19.2045C11.7939 19.3637 11.9604 19.4613 12.1399 19.4583C12.3195 19.4554 12.4828 19.3524 12.565 19.1904L23.0604 0.74495C23.1272 0.630341 23.1456 0.493212 23.1114 0.364653C23.0772 0.236094 22.9933 0.126996 22.8787 0.0620961L22.8787 0.0622083Z" fill="#B0A2C6"/>
<path fill-rule="evenodd" clip-rule="evenodd" d="M22.3943 0.929016L21.9071 1.78527L27.403 5.00488C27.8756 5.28184 28.0348 5.87955 27.762 6.3591L26.7856 8.07497C26.7207 8.18836 26.7029 8.32329 26.7361 8.45003C26.7693 8.57676 26.8508 8.6849 26.9627 8.7506L29.9236 10.4852L25.2852 18.6372L20.2104 15.6643C19.9713 15.5243 19.893 15.2277 20.031 14.985L21.4955 12.4113L20.6533 11.9179L19.1888 14.4916C18.7877 15.1966 19.0284 16.1135 19.7232 16.5205L25.2191 19.7402C25.3311 19.8056 25.4641 19.8231 25.5889 19.789C25.7137 19.7548 25.8199 19.6716 25.8843 19.5579L31.0099 10.5496C31.1439 10.3136 31.0643 10.0121 30.832 9.87566L27.871 8.14107L28.6042 6.8525C29.1401 5.91061 28.8184 4.69244 27.8902 4.14863L22.3943 0.929016Z" fill="#B0A2C6"/>
<path fill-rule="evenodd" clip-rule="evenodd" d="M26.7856 8.07495L23.8557 13.2242L17.5127 9.50829L17.0255 10.3645L23.7896 14.3271C23.9016 14.3926 24.0347 14.4101 24.1594 14.3759C24.2842 14.3417 24.3905 14.2586 24.4548 14.1448L27.6278 8.56831L26.7856 8.07495Z" fill="#B0A2C6"/>
<path fill-rule="evenodd" clip-rule="evenodd" d="M23.8716 13.4323L19.6265 14.9491L19.9497 15.8825L24.1948 14.3657L23.8716 13.4323Z" fill="#B0A2C6"/>
<path fill-rule="evenodd" clip-rule="evenodd" d="M8.19622 0.0622082C8.43025 -0.0696645 8.72531 0.014936 8.85671 0.251588L19.3521 18.697C19.4493 18.8502 19.4556 19.0452 19.3683 19.2045C19.281 19.3637 19.1145 19.4613 18.935 19.4583C18.7554 19.4554 18.5921 19.3524 18.5099 19.1904L8.01449 0.74495C7.94767 0.630341 7.92928 0.493212 7.96349 0.364653C7.9977 0.236094 8.08162 0.126996 8.19622 0.0620959L8.19622 0.0622082Z" fill="#B0A2C6"/>
<path fill-rule="evenodd" clip-rule="evenodd" d="M8.68065 0.929016L9.16786 1.78527L3.67199 5.00488C3.19937 5.28184 3.04012 5.87955 3.31298 6.3591L4.2893 8.07497C4.35422 8.18836 4.37204 8.32329 4.33884 8.45003C4.30563 8.57676 4.22412 8.6849 4.11228 8.7506L1.15131 10.4852L5.78978 18.6372L10.8645 15.6643C11.1037 15.5243 11.182 15.2277 11.0439 14.985L9.57944 12.4113L10.4217 11.9179L11.8861 14.4916C12.2873 15.1966 12.0465 16.1135 11.3518 16.5205L5.85589 19.7402C5.74388 19.8056 5.61083 19.8231 5.48605 19.789C5.36127 19.7548 5.25501 19.6716 5.1907 19.5579L0.0650177 10.5496C-0.0689193 10.3136 0.0106973 10.0121 0.242997 9.87566L3.20396 8.14107L2.47077 6.8525C1.93483 5.91061 2.25651 4.69244 3.18479 4.14863L8.68065 0.929016Z" fill="#B0A2C6"/>
<path fill-rule="evenodd" clip-rule="evenodd" d="M4.2893 8.07495L7.21921 13.2242L13.5622 9.50829L14.0495 10.3645L7.28531 14.3271C7.1733 14.3926 7.04025 14.4101 6.91547 14.3759C6.7907 14.3417 6.68444 14.2586 6.62012 14.1448L3.44708 8.56831L4.2893 8.07495Z" fill="#B0A2C6"/>
<path fill-rule="evenodd" clip-rule="evenodd" d="M7.20332 13.4323L11.4484 14.9491L11.1252 15.8825L6.88007 14.3657L7.20332 13.4323Z" fill="#B0A2C6"/>
</svg>
