<svg width="28" height="28" viewBox="0 0 28 28" fill="none" xmlns="http://www.w3.org/2000/svg">
<path fill-rule="evenodd" clip-rule="evenodd" d="M1.09668 11.5988V19.9913C1.09696 20.1699 1.19359 20.3344 1.34941 20.4216L13.6928 27.3343C13.8426 27.4181 14.0252 27.4181 14.1751 27.3343L26.5262 20.4216C26.682 20.3344 26.7786 20.1699 26.7789 19.9913L26.7712 11.5988H25.7834L25.7911 19.702L13.9339 26.3369L2.08446 19.702V11.5988L1.09668 11.5988Z" fill="#B0A2C6"/>
<path fill-rule="evenodd" clip-rule="evenodd" d="M13.9243 0.233352C13.8484 0.23453 13.7738 0.253181 13.7063 0.287859L0.375125 7.21021C0.211148 7.29539 0.108429 7.46498 0.108888 7.64977L0.116601 11.1033C0.11677 11.2874 0.219397 11.4562 0.382838 11.5411L13.7005 18.4519C13.8427 18.5254 14.0117 18.5254 14.1538 18.4519L27.4927 11.5411C27.6562 11.4562 27.7588 11.2874 27.7589 11.1033L27.7667 7.64208C27.7672 7.45718 27.6645 7.28745 27.5004 7.20222L14.1616 0.28756C14.0882 0.250004 14.0067 0.231394 13.9243 0.233427L13.9243 0.233352ZM13.9339 1.2829L26.7789 7.94093L26.7731 10.8021L13.9281 17.4562L1.10245 10.8021L1.09666 7.94675L13.9339 1.2829Z" fill="#B0A2C6"/>
<path fill-rule="evenodd" clip-rule="evenodd" d="M0.836224 7.20587L0.38092 8.08179L13.7005 14.9944C13.8427 15.0679 14.0117 15.0679 14.1539 14.9944L27.4946 8.08179L27.0393 7.20587L13.9281 13.9989L0.836224 7.20587Z" fill="#B0A2C6"/>
<path fill-rule="evenodd" clip-rule="evenodd" d="M13.4439 14.5546V26.9022H14.4317V14.5546H13.4439Z" fill="#B0A2C6"/>
<path fill-rule="evenodd" clip-rule="evenodd" d="M16.6572 11.1021C16.7377 11.1016 16.8168 11.0811 16.8876 11.0423L19.6085 9.54399C19.7676 9.45668 19.8664 9.28755 19.8656 9.10396C19.8648 8.92037 19.7645 8.75213 19.6047 8.66625L17.6949 7.63768L19.6028 6.59764C19.7623 6.51106 19.8619 6.34235 19.8619 6.15872C19.8619 5.97508 19.7623 5.80637 19.6028 5.71979L16.8857 4.23885C16.7412 4.16029 16.5675 4.16029 16.423 4.23885L13.9363 5.5942L11.4629 4.2524C11.3189 4.17453 11.1462 4.17453 11.0022 4.2524L8.27173 5.72752C8.11207 5.81374 8.01213 5.98221 8.01173 6.16583C8.01132 6.34945 8.11051 6.51838 8.26978 6.60533L10.1853 7.6435L8.26788 8.69712C8.10878 8.78442 8.00995 8.95357 8.01075 9.13719C8.01154 9.32081 8.11184 9.48907 8.27168 9.57494L10.9907 11.0442C11.1352 11.1228 11.3088 11.1228 11.4534 11.0442L13.9382 9.68888L16.423 11.0442C16.4948 11.0839 16.5754 11.1047 16.6572 11.1047L16.6572 11.1021ZM11.2211 10.0407L9.53603 9.13202L11.4553 8.07832C11.6134 7.99069 11.7114 7.82213 11.7106 7.63929C11.7098 7.45644 11.6103 7.28877 11.4515 7.20256L9.54174 6.16626L11.2306 5.2557L13.7059 6.59749C13.8509 6.67674 14.0255 6.67674 14.1705 6.59749L16.6534 5.24214L18.3347 6.15857L16.423 7.20256C16.2638 7.28952 16.1646 7.45843 16.165 7.64202C16.1654 7.82561 16.2653 7.99406 16.425 8.0803L18.3385 9.11074L16.6535 10.0387L14.1706 8.68353C14.0255 8.60428 13.851 8.60428 13.706 8.68353L11.2211 10.0407Z" fill="#B0A2C6"/>
</svg>
