<svg width="22" height="26" viewBox="0 0 22 26" fill="none" xmlns="http://www.w3.org/2000/svg">
<path fill-rule="evenodd" clip-rule="evenodd" d="M4.78833 2.50968C4.78833 1.24729 5.81897 0.216614 7.08139 0.216614H14.4192C15.6816 0.216614 16.7122 1.24729 16.7122 2.50968V23.6058C16.7122 24.8683 15.6816 25.8988 14.4192 25.8988H7.08139C5.81897 25.8988 4.78833 24.8683 4.78833 23.6058V2.50968ZM14.4192 1.13382H7.08139C6.31124 1.13382 5.70555 1.73956 5.70555 2.50968V23.6058C5.70555 24.376 6.31124 24.9816 7.08139 24.9816H14.4192C15.1893 24.9816 15.795 24.376 15.795 23.6058V2.50968C15.795 1.73956 15.1893 1.13382 14.4192 1.13382Z" fill="#B0A2C6"/>
<path fill-rule="evenodd" clip-rule="evenodd" d="M7.53998 5.26133C7.53998 3.49382 8.9827 2.05103 10.7503 2.05103C12.5178 2.05103 13.9605 3.49382 13.9605 5.26133C13.9605 7.02888 12.5178 8.4716 10.7503 8.4716C8.9827 8.4716 7.53998 7.02888 7.53998 5.26133ZM13.0433 5.26133C13.0433 3.98948 12.0221 2.96827 10.7503 2.96827C9.4784 2.96827 8.4572 3.98948 8.4572 5.26133C8.4572 6.53322 9.4784 7.55436 10.7503 7.55436C12.0221 7.55436 13.0433 6.53322 13.0433 5.26133Z" fill="#B0A2C6"/>
<path fill-rule="evenodd" clip-rule="evenodd" d="M7.53998 13.0577C7.53998 11.2903 8.9827 9.84747 10.7503 9.84747C12.5178 9.84747 13.9605 11.2903 13.9605 13.0577C13.9605 14.8253 12.5178 16.2681 10.7503 16.2681C8.9827 16.2681 7.53998 14.8253 7.53998 13.0577ZM13.0433 13.0577C13.0433 11.7859 12.0221 10.7647 10.7503 10.7647C9.4784 10.7647 8.4572 11.7859 8.4572 13.0577C8.4572 14.3297 9.4784 15.3508 10.7503 15.3508C12.0221 15.3508 13.0433 14.3297 13.0433 13.0577Z" fill="#B0A2C6"/>
<path fill-rule="evenodd" clip-rule="evenodd" d="M7.53998 20.8541C7.53998 19.0867 8.9827 17.6439 10.7503 17.6439C12.5178 17.6439 13.9605 19.0867 13.9605 20.8541C13.9605 22.6217 12.5178 24.0644 10.7503 24.0644C8.9827 24.0644 7.53998 22.6217 7.53998 20.8541ZM13.0433 20.8541C13.0433 19.5823 12.0221 18.5611 10.7503 18.5611C9.4784 18.5611 8.4572 19.5823 8.4572 20.8541C8.4572 22.1261 9.4784 23.1472 10.7503 23.1472C12.0221 23.1472 13.0433 22.1261 13.0433 20.8541Z" fill="#B0A2C6"/>
<path fill-rule="evenodd" clip-rule="evenodd" d="M0.202209 2.05103V4.04315L3.64717 8.4716H5.24693V7.55436H4.09503L1.11943 3.72965V2.96827H5.24693V2.05103L0.202209 2.05103Z" fill="#B0A2C6"/>
<path fill-rule="evenodd" clip-rule="evenodd" d="M16.2536 2.05103V2.96827H20.3811V3.72965L17.4055 7.55436H16.2536V8.4716H17.8534L21.2983 4.04315V2.05103L16.2536 2.05103Z" fill="#B0A2C6"/>
<path fill-rule="evenodd" clip-rule="evenodd" d="M0.202209 9.84747V11.8396L3.64717 16.268H5.24693V15.3508H4.09503L1.11943 11.5261V10.7647H5.24693V9.84747L0.202209 9.84747Z" fill="#B0A2C6"/>
<path fill-rule="evenodd" clip-rule="evenodd" d="M16.2536 9.84747V10.7647H20.3811V11.5261L17.4055 15.3508H16.2536V16.268H17.8534L21.2983 11.8396V9.84747L16.2536 9.84747Z" fill="#B0A2C6"/>
<path fill-rule="evenodd" clip-rule="evenodd" d="M0.202209 17.6439V19.636L3.64717 24.0644H5.24693V23.1472H4.09503L1.11943 19.3225V18.5611H5.24693V17.6439L0.202209 17.6439Z" fill="#B0A2C6"/>
<path fill-rule="evenodd" clip-rule="evenodd" d="M16.2536 17.6439V18.5611H20.3811V19.3225L17.4055 23.1472H16.2536V24.0644H17.8534L21.2983 19.636V17.6439L16.2536 17.6439Z" fill="#B0A2C6"/>
</svg>
