<svg width="30" height="20" viewBox="0 0 30 20" fill="none" xmlns="http://www.w3.org/2000/svg">
<path fill-rule="evenodd" clip-rule="evenodd" d="M2.27908 17.2888C1.65103 17.2888 0.255375 17.0865 0.0460263 16.1421C-0.0935395 15.6699 0.115809 15.3327 0.255375 15.1303C0.325158 14.9279 0.394941 14.8605 0.325158 14.5232C0.0460263 13.5789 -0.233105 9.26183 1.09277 8.38493C1.93016 7.8453 4.37257 6.2264 15.3285 5.48441C24.4003 0.830097 26.0751 0.290466 28.7268 0.0206509C30.515 -0.190142 29.7695 1.28019 28.8664 1.36973C26.424 1.63954 24.819 2.17917 15.817 6.76604C15.7472 6.83349 15.6076 6.83349 15.5378 6.83349C8.48976 7.30567 3.88409 8.18257 1.86038 9.53164C1.3719 9.93637 1.30212 13.1067 1.58125 14.186C1.86038 14.9954 1.65103 15.4676 1.44168 15.8048C1.65103 15.8723 1.99995 15.9398 2.27908 15.9398H4.35721C4.77591 15.9398 5.05504 16.2096 5.05504 16.6143C5.05504 17.019 4.77591 17.2888 4.42699 17.2888H2.27908ZM29.2584 18.2406H16.4016C16.1761 18.2406 16.0257 17.9893 16.0257 17.6123C16.0257 17.2352 16.1761 16.9839 16.4016 16.9839H29.2584C29.484 16.9839 29.6343 17.2352 29.6343 17.6123C29.6343 17.9264 29.4464 18.2406 29.2584 18.2406ZM10.8253 20C8.22511 20 6.07994 17.9264 6.07994 15.413C6.07994 12.8996 8.22511 10.826 10.8253 10.826C13.4255 10.826 15.5707 12.8996 15.5707 15.413C15.5707 17.9264 13.4255 20 10.8253 20ZM10.8253 12.0827C8.94016 12.0827 7.38004 13.5908 7.38004 15.413C7.38004 17.2352 8.94016 18.7433 10.8253 18.7433C12.7104 18.7433 14.2706 17.2352 14.2706 15.413C14.2706 13.528 12.7104 12.0827 10.8253 12.0827ZM19.1566 8.83665C18.8782 8.83665 18.8955 8.73177 18.8955 8.40881C18.8955 8.08586 19.091 7.79186 19.4251 7.79186C19.5921 7.79186 28.6332 7.79952 29.8025 7.74569C30.0253 7.74569 30.0809 8.76838 29.8582 8.76838C28.6332 8.92986 19.7692 8.83665 19.1566 8.83665ZM28.9252 12.2567H26.65C26.26 12.2567 26 12.0054 26 11.6284C26 11.2513 26.26 11 26.65 11H28.9252C29.3153 11 29.5753 11.2513 29.5753 11.6284C29.5753 12.0054 29.3153 12.2567 28.9252 12.2567ZM2.63468 12.2784C2.30966 12.2784 1.98463 12.0271 1.98463 11.7129C1.98463 11.3359 2.24465 11.0845 2.56968 11.0217C3.02471 10.9588 3.47974 10.896 3.86977 10.8332C3.60975 10.6447 3.54475 10.3305 3.67476 10.0792C3.86977 9.76498 4.2598 9.63931 4.51982 9.82781C4.77984 9.95348 5.62491 10.3933 5.4949 11.1474C5.4949 11.3359 5.36489 12.0899 2.63468 12.2784C2.69969 12.2784 2.69969 12.2784 2.63468 12.2784Z" fill="#B0A2C6"/>
<path d="M19.2203 8.20929C19.2203 8.20929 24.9887 4.71159 29.2076 4.11432" stroke="#B0A2C6" stroke-width="1.25" stroke-linecap="round" stroke-linejoin="round"/>
</svg>
