<svg width="120" height="16" viewBox="0 0 120 16" fill="none" xmlns="http://www.w3.org/2000/svg">
<path fill-rule="evenodd" clip-rule="evenodd" d="M113.351 5.79336C115.75 6.07132 117.458 6.58701 118.475 7.34045C119.492 8.09388 120 9.22401 120 10.7309C120 12.2377 119.261 13.4593 117.784 14.3956C116.306 15.3319 114.346 15.8001 111.902 15.8001C109.459 15.8001 107.561 15.3502 106.208 14.4505C104.855 13.5507 104.178 12.4426 104.178 11.1259C104.178 10.804 104.346 10.6431 104.683 10.6431H109.181C109.489 10.6431 109.737 10.7382 109.927 10.9284C110.337 11.3234 111.047 11.5209 112.056 11.5209C113.446 11.5209 114.141 11.3087 114.141 10.8845C114.141 10.6212 113.921 10.4127 113.482 10.2591C113.044 10.1055 112.173 9.9555 110.871 9.80921C106.731 9.31179 104.661 7.72449 104.661 5.04724C104.661 3.54038 105.326 2.32247 106.658 1.39348C107.989 0.464488 109.77 0 112.001 0C114.232 0 116.035 0.486432 117.411 1.45931C118.786 2.43219 119.473 3.45992 119.473 4.54252C119.473 4.68882 119.426 4.80585 119.331 4.89363C119.236 4.98141 119.108 5.0253 118.947 5.0253H114.229C113.965 5.0253 113.738 4.93752 113.548 4.76196C113.197 4.44011 112.671 4.27918 111.968 4.27918C110.988 4.27918 110.498 4.484 110.498 4.89363C110.498 5.11308 110.688 5.28497 111.069 5.40933C111.449 5.53368 112.21 5.66169 113.351 5.79336ZM94.2862 14.8126C94.3447 14.9003 94.374 15.0027 94.374 15.1198C94.374 15.2368 94.3264 15.3429 94.2313 15.438C94.1362 15.5331 94.0229 15.5806 93.8912 15.5806H88.2295C87.893 15.5806 87.6297 15.4636 87.4395 15.2295L83.6212 10.5114V14.9881C83.6212 15.149 83.5626 15.288 83.4456 15.4051C83.3286 15.5221 83.1896 15.5806 83.0286 15.5806H78.5081C78.3471 15.5806 78.2082 15.5221 78.0911 15.4051C77.9741 15.288 77.9156 15.149 77.9156 14.9881V0.811948C77.9156 0.65102 77.9741 0.51204 78.0911 0.395002C78.2082 0.277963 78.3471 0.219445 78.5081 0.219445H83.0286C83.1896 0.219445 83.3286 0.277963 83.4456 0.395002C83.5626 0.51204 83.6212 0.65102 83.6212 0.811948V4.93752L87.0884 0.592502C87.3078 0.343796 87.5785 0.219445 87.9003 0.219445H93.189C93.3206 0.219445 93.434 0.266991 93.5291 0.362085C93.6242 0.457178 93.6717 0.5669 93.6717 0.691253C93.6717 0.815606 93.6352 0.92167 93.562 1.00945L88.3612 7.35142L94.2862 14.8126ZM54.2615 14.1981C55.6952 15.2661 57.641 15.8001 60.0988 15.8001C62.5566 15.8001 64.5059 15.2661 65.947 14.1981C67.388 13.1301 68.1085 11.4624 68.1085 9.19476V0.811948C68.1085 0.65102 68.05 0.51204 67.9329 0.395002C67.8159 0.277963 67.6769 0.219445 67.516 0.219445H62.9296C62.7687 0.219445 62.6297 0.277963 62.5126 0.395002C62.3956 0.51204 62.3371 0.65102 62.3371 0.811948V9.54587C62.3371 10.1457 62.1359 10.6065 61.7336 10.9284C61.3313 11.2502 60.7864 11.4112 60.0988 11.4112C59.4112 11.4112 58.8662 11.2502 58.4639 10.9284C58.0616 10.6065 57.8604 10.1457 57.8604 9.54587V0.811948C57.8604 0.65102 57.8019 0.51204 57.6849 0.395002C57.5678 0.277963 57.4288 0.219445 57.2679 0.219445H52.6815C52.5206 0.219445 52.3816 0.277963 52.2646 0.395002C52.1475 0.51204 52.089 0.65102 52.089 0.811948V9.19476C52.089 11.4624 52.8132 13.1301 54.2615 14.1981ZM41.4166 14.9003C41.4459 14.9589 41.4605 15.0393 41.4605 15.1417C41.4605 15.2441 41.413 15.3429 41.3179 15.438C41.2228 15.5331 41.1094 15.5806 40.9778 15.5806H35.9963C35.5574 15.5806 35.2502 15.3977 35.0747 15.032L33.1436 10.687H31.3002V14.9881C31.3002 15.149 31.2417 15.288 31.1247 15.4051C31.0076 15.5221 30.8686 15.5806 30.7077 15.5806H25.9677C25.8068 15.5806 25.6678 15.5221 25.5508 15.4051C25.4337 15.288 25.3752 15.149 25.3752 14.9881V0.811948C25.3752 0.65102 25.4337 0.51204 25.5508 0.395002C25.6678 0.277963 25.8068 0.219445 25.9677 0.219445H34.5041C36.5084 0.219445 38.0957 0.694905 39.2661 1.64584C40.4365 2.59677 41.0216 3.89149 41.0216 5.53002C41.0216 7.51967 40.2536 8.96068 38.7175 9.85309L41.4166 14.9003ZM31.783 4.30113V6.62725H34.5261C34.8479 6.62725 35.0966 6.52118 35.2722 6.30905C35.4477 6.09692 35.5355 5.82993 35.5355 5.50808C35.5355 5.18622 35.4514 4.9046 35.2831 4.66321C35.1149 4.42182 34.8625 4.30113 34.5261 4.30113H31.783ZM15.7342 0.219445H0.592499C0.431572 0.219445 0.292595 0.277963 0.175552 0.395002C0.0585175 0.51204 0 0.65102 0 0.811948V4.34502C0 4.50594 0.0585175 4.64492 0.175552 4.76196C0.292595 4.879 0.431572 4.93752 0.592499 4.93752H5.31058V14.9881C5.31058 15.149 5.36909 15.288 5.48613 15.4051C5.60317 15.5221 5.74215 15.5806 5.90308 15.5806H10.4237C10.5846 15.5806 10.7236 15.5221 10.8406 15.4051C10.9576 15.288 11.0162 15.149 11.0162 14.9881V4.93752H15.7342C15.8952 4.93752 16.0341 4.879 16.1512 4.76196C16.2682 4.64492 16.3267 4.50594 16.3267 4.34502V0.811948C16.3267 0.65102 16.2682 0.51204 16.1512 0.395002C16.0341 0.277963 15.8952 0.219445 15.7342 0.219445Z" fill="black"/>
</svg>
